<mxfile host="app.diagrams.net" agent="Mozilla/5.0 (Windows NT 10.0; Win64; x64) AppleWebKit/537.36 (KHTML, like Gecko) Chrome/133.0.0.0 Safari/537.36 Edg/133.0.0.0" version="25.0.1">
  <diagram name="Page-1" id="R-wSybrBWUYK0LldgWFq">
    <mxGraphModel dx="873" dy="468" grid="1" gridSize="10" guides="1" tooltips="1" connect="1" arrows="1" fold="1" page="1" pageScale="1" pageWidth="850" pageHeight="1100" math="0" shadow="0">
      <root>
        <mxCell id="0" />
        <mxCell id="1" parent="0" />
        <mxCell id="DaBF8jLqcCnEj46EkNLt-18" style="edgeStyle=orthogonalEdgeStyle;rounded=0;orthogonalLoop=1;jettySize=auto;html=1;" edge="1" parent="1" source="DaBF8jLqcCnEj46EkNLt-1" target="DaBF8jLqcCnEj46EkNLt-6">
          <mxGeometry relative="1" as="geometry">
            <Array as="points">
              <mxPoint x="170" y="300" />
              <mxPoint x="170" y="300" />
            </Array>
          </mxGeometry>
        </mxCell>
        <mxCell id="DaBF8jLqcCnEj46EkNLt-1" value="USER" style="rounded=0;whiteSpace=wrap;html=1;" vertex="1" parent="1">
          <mxGeometry x="110" y="30" width="120" height="60" as="geometry" />
        </mxCell>
        <mxCell id="DaBF8jLqcCnEj46EkNLt-12" style="edgeStyle=orthogonalEdgeStyle;rounded=0;orthogonalLoop=1;jettySize=auto;html=1;" edge="1" parent="1" source="DaBF8jLqcCnEj46EkNLt-2" target="DaBF8jLqcCnEj46EkNLt-11">
          <mxGeometry relative="1" as="geometry" />
        </mxCell>
        <mxCell id="DaBF8jLqcCnEj46EkNLt-32" style="edgeStyle=orthogonalEdgeStyle;rounded=0;orthogonalLoop=1;jettySize=auto;html=1;entryX=0.5;entryY=0;entryDx=0;entryDy=0;" edge="1" parent="1" source="DaBF8jLqcCnEj46EkNLt-2" target="DaBF8jLqcCnEj46EkNLt-31">
          <mxGeometry relative="1" as="geometry" />
        </mxCell>
        <mxCell id="DaBF8jLqcCnEj46EkNLt-2" value="ADMIN" style="rounded=0;whiteSpace=wrap;html=1;" vertex="1" parent="1">
          <mxGeometry x="545" y="270" width="120" height="60" as="geometry" />
        </mxCell>
        <mxCell id="DaBF8jLqcCnEj46EkNLt-4" value="CHAT" style="text;html=1;align=center;verticalAlign=middle;whiteSpace=wrap;rounded=0;" vertex="1" parent="1">
          <mxGeometry x="350" y="100" width="60" height="30" as="geometry" />
        </mxCell>
        <mxCell id="DaBF8jLqcCnEj46EkNLt-39" style="edgeStyle=orthogonalEdgeStyle;rounded=0;orthogonalLoop=1;jettySize=auto;html=1;entryX=0.5;entryY=1;entryDx=0;entryDy=0;" edge="1" parent="1" source="DaBF8jLqcCnEj46EkNLt-6" target="DaBF8jLqcCnEj46EkNLt-28">
          <mxGeometry relative="1" as="geometry">
            <Array as="points">
              <mxPoint x="253" y="390" />
              <mxPoint x="890" y="390" />
            </Array>
          </mxGeometry>
        </mxCell>
        <mxCell id="DaBF8jLqcCnEj46EkNLt-6" value="" style="strokeColor=#dddddd;shadow=1;strokeWidth=1;rounded=1;absoluteArcSize=1;arcSize=2;" vertex="1" parent="1">
          <mxGeometry x="152.5" y="280" width="200" height="60" as="geometry" />
        </mxCell>
        <mxCell id="DaBF8jLqcCnEj46EkNLt-21" style="edgeStyle=orthogonalEdgeStyle;rounded=0;orthogonalLoop=1;jettySize=auto;html=1;entryX=0;entryY=0.5;entryDx=0;entryDy=0;" edge="1" parent="1" source="DaBF8jLqcCnEj46EkNLt-8" target="DaBF8jLqcCnEj46EkNLt-2">
          <mxGeometry relative="1" as="geometry" />
        </mxCell>
        <mxCell id="DaBF8jLqcCnEj46EkNLt-8" value="D1&amp;nbsp; &amp;nbsp; &amp;nbsp; &amp;nbsp; &amp;nbsp; &amp;nbsp; &amp;nbsp; &amp;nbsp;CHAT" style="html=1;dashed=0;whiteSpace=wrap;shape=mxgraph.dfd.dataStoreID;align=left;spacingLeft=3;points=[[0,0],[0.5,0],[1,0],[0,0.5],[1,0.5],[0,1],[0.5,1],[1,1]];" vertex="1" parent="1">
          <mxGeometry x="167.5" y="285" width="170" height="30" as="geometry" />
        </mxCell>
        <mxCell id="DaBF8jLqcCnEj46EkNLt-26" style="edgeStyle=orthogonalEdgeStyle;rounded=0;orthogonalLoop=1;jettySize=auto;html=1;entryX=1;entryY=0.5;entryDx=0;entryDy=0;" edge="1" parent="1" source="DaBF8jLqcCnEj46EkNLt-11" target="DaBF8jLqcCnEj46EkNLt-1">
          <mxGeometry relative="1" as="geometry" />
        </mxCell>
        <mxCell id="DaBF8jLqcCnEj46EkNLt-11" value="D2&amp;nbsp; &amp;nbsp; &amp;nbsp;TRACKING" style="html=1;dashed=0;whiteSpace=wrap;shape=mxgraph.dfd.dataStoreID;align=left;spacingLeft=3;points=[[0,0],[0.5,0],[1,0],[0,0.5],[1,0.5],[0,1],[0.5,1],[1,1]];" vertex="1" parent="1">
          <mxGeometry x="535" y="45" width="140" height="30" as="geometry" />
        </mxCell>
        <mxCell id="DaBF8jLqcCnEj46EkNLt-13" value="SEND MESSAGE" style="text;html=1;align=center;verticalAlign=middle;whiteSpace=wrap;rounded=0;" vertex="1" parent="1">
          <mxGeometry x="190" y="180" width="125" height="30" as="geometry" />
        </mxCell>
        <mxCell id="DaBF8jLqcCnEj46EkNLt-15" value="PERSONALIZE" style="text;html=1;align=center;verticalAlign=middle;whiteSpace=wrap;rounded=0;" vertex="1" parent="1">
          <mxGeometry x="620" y="130" width="70" height="30" as="geometry" />
        </mxCell>
        <mxCell id="DaBF8jLqcCnEj46EkNLt-16" value="RESPONSE" style="text;html=1;align=center;verticalAlign=middle;whiteSpace=wrap;rounded=0;" vertex="1" parent="1">
          <mxGeometry x="365" y="10" width="60" height="30" as="geometry" />
        </mxCell>
        <mxCell id="DaBF8jLqcCnEj46EkNLt-17" value="recevied message" style="text;html=1;align=center;verticalAlign=middle;whiteSpace=wrap;rounded=0;" vertex="1" parent="1">
          <mxGeometry x="370" y="315" width="150" height="50" as="geometry" />
        </mxCell>
        <mxCell id="DaBF8jLqcCnEj46EkNLt-34" style="edgeStyle=orthogonalEdgeStyle;rounded=0;orthogonalLoop=1;jettySize=auto;html=1;entryX=1;entryY=0.5;entryDx=0;entryDy=0;" edge="1" parent="1" source="DaBF8jLqcCnEj46EkNLt-28" target="DaBF8jLqcCnEj46EkNLt-31">
          <mxGeometry relative="1" as="geometry" />
        </mxCell>
        <mxCell id="DaBF8jLqcCnEj46EkNLt-28" value="1" style="swimlane;whiteSpace=wrap;html=1;" vertex="1" parent="1">
          <mxGeometry x="820" y="220" width="140" height="110" as="geometry" />
        </mxCell>
        <mxCell id="DaBF8jLqcCnEj46EkNLt-29" value="get holiday based&lt;div&gt;&amp;nbsp;user chat&lt;div&gt;&lt;br&gt;&lt;/div&gt;&lt;/div&gt;" style="text;html=1;align=center;verticalAlign=middle;resizable=0;points=[];autosize=1;strokeColor=none;fillColor=none;" vertex="1" parent="DaBF8jLqcCnEj46EkNLt-28">
          <mxGeometry x="5" y="45" width="120" height="60" as="geometry" />
        </mxCell>
        <mxCell id="DaBF8jLqcCnEj46EkNLt-31" value="D3&amp;nbsp; &amp;nbsp; &amp;nbsp; &amp;nbsp; &amp;nbsp; &amp;nbsp; &amp;nbsp; HOLIDAY" style="html=1;dashed=0;whiteSpace=wrap;shape=mxgraph.dfd.dataStoreID;align=left;spacingLeft=3;points=[[0,0],[0.5,0],[1,0],[0,0.5],[1,0.5],[0,1],[0.5,1],[1,1]];" vertex="1" parent="1">
          <mxGeometry x="560" y="440" width="170" height="30" as="geometry" />
        </mxCell>
        <mxCell id="DaBF8jLqcCnEj46EkNLt-35" style="edgeStyle=orthogonalEdgeStyle;rounded=0;orthogonalLoop=1;jettySize=auto;html=1;entryX=0.135;entryY=0.922;entryDx=0;entryDy=0;entryPerimeter=0;" edge="1" parent="1" source="DaBF8jLqcCnEj46EkNLt-31" target="DaBF8jLqcCnEj46EkNLt-1">
          <mxGeometry relative="1" as="geometry" />
        </mxCell>
        <mxCell id="DaBF8jLqcCnEj46EkNLt-36" value="SEND USER" style="text;html=1;align=center;verticalAlign=middle;whiteSpace=wrap;rounded=0;" vertex="1" parent="1">
          <mxGeometry x="200" y="400" width="60" height="30" as="geometry" />
        </mxCell>
        <mxCell id="DaBF8jLqcCnEj46EkNLt-37" value="INPUTKEYWORD" style="text;html=1;align=center;verticalAlign=middle;whiteSpace=wrap;rounded=0;" vertex="1" parent="1">
          <mxGeometry x="800" y="365" width="60" height="30" as="geometry" />
        </mxCell>
        <mxCell id="DaBF8jLqcCnEj46EkNLt-40" value="Input_chat key world" style="text;html=1;align=center;verticalAlign=middle;whiteSpace=wrap;rounded=0;" vertex="1" parent="1">
          <mxGeometry x="410" y="390" width="60" height="30" as="geometry" />
        </mxCell>
      </root>
    </mxGraphModel>
  </diagram>
</mxfile>
